<svg width="21" height="20" viewBox="0 0 21 20" fill="none" xmlns="http://www.w3.org/2000/svg">
<g clip-path="url(#clip0_378_5839)">
<path d="M9.51637 14.0878C7.9659 13.9261 6.56793 13.5443 5.37104 12.6082C5.22253 12.4917 5.0692 12.3794 4.93367 12.2494C4.4098 11.7462 4.35702 11.17 4.77155 10.5762C5.12617 10.068 5.72148 9.93205 6.34024 10.2238C6.46005 10.2804 6.57421 10.351 6.68355 10.4268C8.91415 11.9595 11.9784 12.0018 14.2174 10.4957C14.4392 10.3256 14.6763 10.187 14.9512 10.1162C15.4855 9.97897 15.9838 10.1752 16.2706 10.6428C16.5982 11.1767 16.594 11.6978 16.1904 12.1124C15.5712 12.7479 14.8265 13.2077 13.9991 13.5286C13.2168 13.8319 12.3599 13.9846 11.5117 14.086C11.6397 14.2253 11.7 14.2938 11.7801 14.3742C12.9317 15.5313 14.0884 16.6835 15.2362 17.8442C15.6273 18.2397 15.709 18.73 15.4937 19.19C15.2582 19.6927 14.7312 20.0235 14.2145 19.9881C13.8871 19.9655 13.6317 19.8025 13.4049 19.574C12.5358 18.6994 11.6504 17.8411 10.7989 16.95C10.5511 16.6909 10.4319 16.7399 10.2133 16.9649C9.33895 17.8649 8.4504 18.7512 7.55661 19.6324C7.15527 20.0281 6.67769 20.0993 6.21225 19.8733C5.7175 19.6335 5.40267 19.1284 5.42697 18.6209C5.44372 18.2776 5.61255 18.0153 5.8482 17.7801C6.98791 16.6421 8.12447 15.5011 9.26145 14.3612C9.33665 14.2854 9.40682 14.2049 9.51637 14.0878Z" fill="#FCFCFC"/>
<path d="M10.4614 10.1233C7.69541 10.1139 5.42732 7.82084 5.44344 5.05045C5.45936 2.24947 7.72893 -0.00773033 10.5222 1.98985e-05C13.321 0.00756067 15.5676 2.29723 15.5535 5.12732C15.5393 7.89206 13.2555 10.1329 10.4614 10.1233ZM12.9752 5.05715C12.9704 3.68159 11.8749 2.5865 10.502 2.58525C9.11768 2.58378 8.01233 3.69877 8.02302 5.0869C8.03328 6.45722 9.13821 7.54456 10.5148 7.53953C11.8872 7.53471 12.9798 6.4325 12.9752 5.05715Z" fill="#FCFCFC"/>
</g>
<defs>
<clipPath id="clip0_378_5839">
<rect width="20" height="20" fill="white" transform="translate(0.5)"/>
</clipPath>
</defs>
</svg>
